<?xml version="1.0" encoding="UTF-8"?>
<svg width="15px" height="13px" viewBox="0 0 15 13" version="1.1" xmlns="http://www.w3.org/2000/svg" xmlns:xlink="http://www.w3.org/1999/xlink">
    <!-- Generator: Sketch 55.2 (78181) - https://sketchapp.com -->
    <title>camera</title>
    <desc>Created with Sketch.</desc>
    <g id="Symbols" stroke="none" stroke-width="1" fill="none" fill-rule="evenodd">
        <g id="photo_upload" transform="translate(-39.000000, -40.000000)" fill="#FFFFFF">
            <g id="Group-14">
                <g id="Group" transform="translate(38.750000, 40.125000)">
                    <g id="camera" transform="translate(0.488889, 0.000000)">
                        <path d="M12.8333333,1.83333333 C13.8722222,1.83333333 14.6666667,2.62777778 14.6666667,3.66666667 L14.6666667,10.3888889 C14.6666667,11.4277778 13.8722222,12.2222222 12.8333333,12.2222222 L1.83333333,12.2222222 C0.794444444,12.2222222 0,11.4277778 0,10.3888889 L0,3.66666667 C0,2.62777778 0.794444444,1.83333333 1.83333333,1.83333333 L3.97222222,1.83333333 L5.01111111,0.244444444 C5.13333333,0.122222222 5.31666667,0 5.5,0 L9.16666667,0 C9.35,0 9.53333333,0.122222222 9.65555556,0.244444444 L10.6944444,1.83333333 L12.8333333,1.83333333 Z M7.33333333,3.66666667 C5.62222222,3.66666667 4.27777778,5.01111111 4.27777778,6.72222222 C4.27777778,8.43333333 5.62222222,9.77777778 7.33333333,9.77777778 C9.04444444,9.77777778 10.3888889,8.43333333 10.3888889,6.72222222 C10.3888889,5.01111111 9.04444444,3.66666667 7.33333333,3.66666667 Z" id="Shape"></path>
                    </g>
                </g>
            </g>
        </g>
    </g>
</svg>