<?xml version="1.0" encoding="UTF-8"?>
<svg width="10px" height="10px" viewBox="0 0 10 10" version="1.1" xmlns="http://www.w3.org/2000/svg" xmlns:xlink="http://www.w3.org/1999/xlink">
    <!-- Generator: Sketch 55.2 (78181) - https://sketchapp.com -->
    <title>Shape</title>
    <desc>Created with Sketch.</desc>
    <g id="Page-1" stroke="none" stroke-width="1" fill="none" fill-rule="evenodd">
        <g id="1440-FORMULARIO-COMPLETADO" transform="translate(-956.000000, -586.000000)" fill="#ACB5BC">
            <g id="Group-15" transform="translate(584.000000, 56.000000)">
                <g id="Group-5">
                    <g id="Group-3" transform="translate(0.000000, 9.000000)">
                        <g id="Group-23">
                            <g id="Group-16">
                                <g id="Group-2-Copy" transform="translate(1.000000, 431.000000)">
                                    <g transform="translate(0.000000, 49.000000)" id="Shape">
                                        <path d="M376.9625,46 L380.60625,42.35625 C380.88125,42.08125 380.88125,41.66875 380.60625,41.39375 C380.33125,41.11875 379.91875,41.11875 379.64375,41.39375 L376,45.0375 L372.35625,41.39375 C372.08125,41.11875 371.66875,41.11875 371.39375,41.39375 C371.11875,41.66875 371.11875,42.08125 371.39375,42.35625 L375.0375,46 L371.39375,49.64375 C371.11875,49.91875 371.11875,50.33125 371.39375,50.60625 C371.53125,50.74375 371.66875,50.8125 371.875,50.8125 C372.08125,50.8125 372.21875,50.74375 372.35625,50.60625 L376,46.9625 L379.64375,50.60625 C379.78125,50.74375 379.9875,50.8125 380.125,50.8125 C380.2625,50.8125 380.46875,50.74375 380.60625,50.60625 C380.88125,50.33125 380.88125,49.91875 380.60625,49.64375 L376.9625,46 Z"></path>
                                    </g>
                                </g>
                            </g>
                        </g>
                    </g>
                </g>
            </g>
        </g>
    </g>
</svg>