<?xml version="1.0" encoding="UTF-8"?>
<svg width="15px" height="11px" viewBox="0 0 15 11" version="1.1" xmlns="http://www.w3.org/2000/svg" xmlns:xlink="http://www.w3.org/1999/xlink">
    <!-- Generator: Sketch 55.2 (78181) - https://sketchapp.com -->
    <title>crown</title>
    <desc>Created with Sketch.</desc>
    <g id="1440" stroke="none" stroke-width="1" fill="none" fill-rule="evenodd">
        <g id="0-1440-FORM-EXPERIENCIAS---EMPTY" transform="translate(-284.000000, -2032.000000)" fill="#EDA358" fill-rule="nonzero">
            <g id="experiencia" transform="translate(0.000000, 1895.000000)">
                <g id="ficha-experiencia" transform="translate(150.000000, 105.000000)">
                    <g id="user" transform="translate(35.000000, 27.000000)">
                        <g id="crown" transform="translate(99.000000, 5.000000)">
                            <path d="M14.4098131,3.17327103 C14.4121121,3.21454206 14.4090841,3.25654206 14.3987103,3.29826168 L13.4734766,6.99919626 C13.4268224,7.18564486 13.2597196,7.31674766 13.0676075,7.31775701 L7.51620561,7.34579439 C7.51547664,7.34579439 7.51480374,7.34579439 7.51407477,7.34579439 L1.96261682,7.34579439 C1.76949533,7.34579439 1.60121495,7.21424299 1.55456075,7.02684112 L0.629327103,3.31188785 C0.618672897,3.26904673 0.615588785,3.22586916 0.618280374,3.18353271 C0.26035514,3.07076636 0,2.73583178 0,2.3411215 C0,1.85411215 0.396168224,1.45794393 0.88317757,1.45794393 C1.37018692,1.45794393 1.76635514,1.85411215 1.76635514,2.3411215 C1.76635514,2.61538318 1.64069159,2.86076636 1.44392523,3.0228785 L2.60231776,4.19001869 C2.89508411,4.48502804 3.30134579,4.65414953 3.71697196,4.65414953 C4.20841121,4.65414953 4.67697196,4.42076636 4.97203738,4.02975701 L6.8757757,1.50728972 C6.71585047,1.34747664 6.61682243,1.12665421 6.61682243,0.88317757 C6.61682243,0.396168224 7.01299065,1.8189894e-12 7.5,1.8189894e-12 C7.98700935,1.8189894e-12 8.38317757,0.396168224 8.38317757,0.88317757 C8.38317757,1.11936449 8.28942056,1.33373832 8.13785047,1.49237383 C8.13835514,1.49304673 8.13897196,1.49360748 8.13947664,1.49433645 L10.0294206,4.02375701 C10.3243738,4.41852336 10.7946168,4.65420561 11.2874579,4.65420561 C11.7068972,4.65420561 12.1013271,4.49085981 12.3979065,4.1942243 L13.5635888,3.02854206 C13.3626729,2.86648598 13.2336449,2.61874766 13.2336449,2.3411215 C13.2336449,1.85411215 13.6298131,1.45794393 14.1168224,1.45794393 C14.6038318,1.45794393 15,1.85411215 15,2.3411215 C15,2.72528972 14.7529907,3.05203738 14.4098131,3.17327103 Z M13.3831963,8.6635514 C13.3831963,8.43128972 13.1948972,8.24299065 12.9626355,8.24299065 L2.08413084,8.24299065 C1.85186916,8.24299065 1.66357009,8.43128972 1.66357009,8.6635514 L1.66357009,9.6728972 C1.66357009,9.90515888 1.85186916,10.0934579 2.08413084,10.0934579 L12.9626355,10.0934579 C13.1948972,10.0934579 13.3831963,9.90515888 13.3831963,9.6728972 L13.3831963,8.6635514 Z" id="Shape"></path>
                        </g>
                    </g>
                </g>
            </g>
        </g>
    </g>
</svg>