<?xml version="1.0" encoding="UTF-8"?>
<svg width="8px" height="8px" viewBox="0 0 8 8" version="1.1" xmlns="http://www.w3.org/2000/svg" xmlns:xlink="http://www.w3.org/1999/xlink">
    <!-- Generator: Sketch 55.2 (78181) - https://sketchapp.com -->
    <title>Shape</title>
    <desc>Created with Sketch.</desc>
    <g id="Page-1" stroke="none" stroke-width="1" fill="none" fill-rule="evenodd">
        <g id="1440-FORMULARIO-COMPLETADO" transform="translate(-915.000000, -1405.000000)" fill="#FFFFFF">
            <g id="Group-15" transform="translate(584.000000, 56.000000)">
                <g id="Group-5">
                    <g id="Group-3" transform="translate(0.000000, 9.000000)">
                        <g id="Group-23">
                            <g id="Group-16">
                                <g id="tratamiento-copy-4" transform="translate(1.000000, 1296.000000)">
                                    <g id="Group" transform="translate(330.062500, 44.062500)">
                                        <g id="x">
                                            <path d="M4.725,3.9375 L7.70625,0.95625 C7.93125,0.73125 7.93125,0.39375 7.70625,0.16875 C7.48125,-0.05625 7.14375,-0.05625 6.91875,0.16875 L3.9375,3.15 L0.95625,0.16875 C0.73125,-0.05625 0.39375,-0.05625 0.16875,0.16875 C-0.05625,0.39375 -0.05625,0.73125 0.16875,0.95625 L3.15,3.9375 L0.16875,6.91875 C-0.05625,7.14375 -0.05625,7.48125 0.16875,7.70625 C0.28125,7.81875 0.39375,7.875 0.5625,7.875 C0.73125,7.875 0.84375,7.81875 0.95625,7.70625 L3.9375,4.725 L6.91875,7.70625 C7.03125,7.81875 7.2,7.875 7.3125,7.875 C7.425,7.875 7.59375,7.81875 7.70625,7.70625 C7.93125,7.48125 7.93125,7.14375 7.70625,6.91875 L4.725,3.9375 Z" id="Shape"></path>
                                        </g>
                                    </g>
                                </g>
                            </g>
                        </g>
                    </g>
                </g>
            </g>
        </g>
    </g>
</svg>