<?xml version="1.0" encoding="UTF-8"?>
<svg width="18px" height="14px" viewBox="0 0 18 14" version="1.1" xmlns="http://www.w3.org/2000/svg" xmlns:xlink="http://www.w3.org/1999/xlink">
    <!-- Generator: Sketch 55.2 (78181) - https://sketchapp.com -->
    <title>mail</title>
    <desc>Created with Sketch.</desc>
    <g id="Page-1" stroke="none" stroke-width="1" fill="none" fill-rule="evenodd">
        <g id="1440-FORMULARIO-COMPLETADO" transform="translate(-597.000000, -1816.000000)" fill="#19B5BC">
            <g id="Group-15" transform="translate(584.000000, 56.000000)">
                <g id="Group-5">
                    <g id="Group-3" transform="translate(0.000000, 9.000000)">
                        <g id="Group-23">
                            <g id="Group-16">
                                <g id="Group-14" transform="translate(1.000000, 1511.000000)">
                                    <g id="Group-2" transform="translate(1.000000, 117.000000)">
                                        <g id="Group-2-Copy" transform="translate(0.000000, 86.000000)">
                                            <g id="Group" transform="translate(11.750000, 37.250000)">
                                                <g id="mail">
                                                    <path d="M14.25,0 L2.25,0 C0.975,0 0,0.975 0,2.25 L0,11.25 C0,12.525 0.975,13.5 2.25,13.5 L14.25,13.5 C15.525,13.5 16.5,12.525 16.5,11.25 L16.5,2.25 C16.5,0.975 15.525,0 14.25,0 Z M2.25,1.5 L14.25,1.5 C14.55,1.5 14.775,1.65 14.925,1.95 L8.25,6.6 L1.575,1.95 C1.725,1.65 1.95,1.5 2.25,1.5 Z M14.25,12 L2.25,12 C1.8,12 1.5,11.7 1.5,11.25 L1.5,3.675 L7.8,8.1 C7.95,8.175 8.1,8.25 8.25,8.25 C8.4,8.25 8.55,8.175 8.7,8.1 L15,3.675 L15,11.25 C15,11.7 14.7,12 14.25,12 Z" id="Shape"></path>
                                                </g>
                                            </g>
                                        </g>
                                    </g>
                                </g>
                            </g>
                        </g>
                    </g>
                </g>
            </g>
        </g>
    </g>
</svg>