<?xml version="1.0" encoding="UTF-8"?>
<svg width="18px" height="18px" viewBox="0 0 18 18" version="1.1" xmlns="http://www.w3.org/2000/svg" xmlns:xlink="http://www.w3.org/1999/xlink">
    <!-- Generator: Sketch 55.2 (78181) - https://sketchapp.com -->
    <title>euro</title>
    <desc>Created with Sketch.</desc>
    <g id="1440" stroke="none" stroke-width="1" fill="none" fill-rule="evenodd">
        <g id="0-1440-FORM-EXPERIENCIAS---EMPTY" transform="translate(-296.000000, -2131.000000)" fill-rule="nonzero">
            <g id="experiencia" transform="translate(0.000000, 1895.000000)">
                <g id="ficha-experiencia" transform="translate(150.000000, 105.000000)">
                    <g id="euro" transform="translate(147.000000, 132.000000)">
                        <path d="M8,0 C3.581893,0 0,3.581893 0,8 C0,12.418107 3.581893,16 8,16 C12.418107,16 16,12.418107 16,8 C16,3.581893 12.418107,0 8,0 Z" id="Shape" stroke="#ACB5BC"></path>
                        <path d="M10.7917695,12.0526749 C10.5514403,12.1613169 10.3012346,12.2534979 10.0444444,12.3226337 C9.06995885,12.5925926 8.09547325,12.6024691 7.12427984,12.2864198 C5.95226337,11.9078189 5.17530864,11.1078189 4.71111111,9.98847737 C4.62222222,9.77119342 4.56296296,9.54403292 4.49382716,9.31687243 L3.57530864,9.31687243 C3.42057613,9.31687243 3.29876543,9.19176955 3.29876543,9.04032922 L3.29876543,8.42139918 C3.29876543,8.26666667 3.42386831,8.14485597 3.57530864,8.14485597 L4.33580247,8.14485597 C4.33580247,7.97366255 4.33580247,7.81234568 4.33580247,7.64115226 L3.57530864,7.64115226 C3.42057613,7.64115226 3.29876543,7.51604938 3.29876543,7.36460905 L3.29876543,6.74567901 C3.29876543,6.5909465 3.42386831,6.4691358 3.57530864,6.4691358 L4.54320988,6.4691358 L4.57613169,6.37366255 C4.83621399,5.5473251 5.28395062,4.83950617 5.97201646,4.30617284 C6.51851852,3.88148148 7.15061728,3.64773663 7.82880658,3.53909465 C8.79341564,3.38436214 9.72839506,3.51604938 10.6337449,3.87160494 C10.6930041,3.89465021 10.7489712,3.92098765 10.8049383,3.95390947 C11.0222222,4.08230453 11.0781893,4.2436214 10.982716,4.47736626 C10.8806584,4.72098765 10.7786008,4.96790123 10.6666667,5.20823045 C10.5711934,5.41563786 10.4395062,5.48148148 10.2156379,5.43209877 C9.90946502,5.36296296 9.60987654,5.26748971 9.3037037,5.20493827 C8.65843621,5.07325103 8.01646091,5.06666667 7.38765432,5.31358025 C6.84773663,5.52757202 6.51851852,5.93909465 6.29465021,6.4526749 C6.29135802,6.45925926 6.29135802,6.46584362 6.29135802,6.47242798 L8.17119342,6.47242798 C8.32592593,6.47242798 8.44773663,6.59753086 8.44773663,6.74897119 L8.44773663,7.36790123 C8.44773663,7.52263374 8.32263374,7.64444444 8.17119342,7.64444444 L6.02469136,7.64444444 C6.02139918,7.8090535 6.02469136,7.97366255 6.02469136,8.14814815 L8.1744856,8.14814815 C8.32921811,8.14814815 8.45102881,8.27325103 8.45102881,8.42469136 L8.45102881,9.0436214 C8.45102881,9.19835391 8.32592593,9.32016461 8.1744856,9.32016461 L6.21234568,9.32016461 C6.44938272,9.99835391 6.8345679,10.5218107 7.55884774,10.7489712 C8.1382716,10.9300412 8.72098765,10.9201646 9.30699588,10.7983539 C9.60987654,10.7358025 9.90617284,10.6436214 10.2090535,10.5744856 C10.4460905,10.5218107 10.5744856,10.5843621 10.673251,10.8016461 C10.7851852,11.0452675 10.890535,11.2921811 10.9893004,11.5423868 C11.0814815,11.7662551 11.0222222,11.9473251 10.7917695,12.0526749 Z" id="Path" fill="#ACB5BC"></path>
                    </g>
                </g>
            </g>
        </g>
    </g>
</svg>