<?xml version="1.0" encoding="UTF-8"?>
<svg width="30px" height="29px" viewBox="0 0 30 29" version="1.1" xmlns="http://www.w3.org/2000/svg" xmlns:xlink="http://www.w3.org/1999/xlink">
    <!-- Generator: Sketch 55.2 (78181) - https://sketchapp.com -->
    <title>Shape</title>
    <desc>Created with Sketch.</desc>
    <g id="Page-1" stroke="none" stroke-width="1" fill="none" fill-rule="evenodd">
        <g id="1440-FORMULARIO-COMPLETADO" transform="translate(-585.000000, -662.000000)" fill="#FFD289" fill-rule="nonzero" stroke="#FFD289" stroke-width="2">
            <g id="Group-15" transform="translate(584.000000, 56.000000)">
                <g id="Group-5">
                    <g id="Group-3" transform="translate(0.000000, 9.000000)">
                        <g id="Group-23">
                            <g id="Group-16">
                                <g id="rating" transform="translate(1.000000, 570.000000)">
                                    <g id="Stars" transform="translate(0.000000, 27.000000)">
                                        <g id="ico/star">
                                            <g id="star">
                                                <path d="M28.5826805,11.1155618 L19.5337849,9.84306084 L19.298842,9.37317513 L15.3842204,1.54007314 C15.3281483,1.40923844 14.8641594,1.40923844 14.7802203,1.59961109 L10.6591939,9.69955961 L1.70532524,11.1208086 L1.54855769,11.1331731 C1.50346013,11.1331731 1.4104802,11.2056186 1.29235481,11.4130568 C1.27768456,11.5225452 1.2944199,11.5787244 1.2984502,11.5814112 L1.44304416,11.6986275 L7.98838968,18.1016829 L7.8994912,18.6189104 L6.40860404,27.2766702 C6.3876993,27.3602892 6.44078371,27.4841528 6.5297002,27.5434305 C6.71143579,27.6645875 6.86383003,27.6849068 6.98473434,27.6246972 L15.0961538,23.355529 L22.988918,27.5096154 C23.0126678,27.5096154 23.0404494,27.5096154 23.0771635,27.5096154 C23.2280649,27.5096154 23.2280649,27.5096154 23.4125,27.5096154 C23.4208881,27.5096154 23.4945491,27.4823289 23.6932343,27.3849797 C23.7630683,27.3195413 23.8002119,27.2071738 23.7682973,27.0693912 L22.203918,17.9675483 L28.7492635,11.5644929 L28.8938575,11.4472766 C28.8901988,11.4497158 28.9058165,11.3989581 28.9022782,11.3883432 L28.880819,11.314651 C28.8580563,11.2235999 28.8043722,11.1750882 28.5826805,11.1155618 Z" id="Shape"></path>
                                            </g>
                                        </g>
                                    </g>
                                </g>
                            </g>
                        </g>
                    </g>
                </g>
            </g>
        </g>
    </g>
</svg>