<?xml version="1.0" encoding="UTF-8"?>
<svg width="14px" height="16px" viewBox="0 0 14 16" version="1.1" xmlns="http://www.w3.org/2000/svg" xmlns:xlink="http://www.w3.org/1999/xlink">
    <!-- Generator: Sketch 55.2 (78181) - https://sketchapp.com -->
    <title>user</title>
    <desc>Created with Sketch.</desc>
    <g id="Page-1" stroke="none" stroke-width="1" fill="none" fill-rule="evenodd">
        <g id="1440-FORMULARIO-COMPLETADO" transform="translate(-599.000000, -1729.000000)" fill="#19B5BC">
            <g id="Group-15" transform="translate(584.000000, 56.000000)">
                <g id="Group-5">
                    <g id="Group-3" transform="translate(0.000000, 9.000000)">
                        <g id="Group-23">
                            <g id="Group-16">
                                <g id="Group-14" transform="translate(1.000000, 1511.000000)">
                                    <g id="Group-2" transform="translate(1.000000, 117.000000)">
                                        <g id="Group-2-Copy-3">
                                            <g id="Group" transform="translate(13.250000, 36.500000)">
                                                <g id="user">
                                                    <path d="M9.75,9 L3.75,9 C1.65,9 0,10.65 0,12.75 L0,14.25 C0,14.7 0.3,15 0.75,15 C1.2,15 1.5,14.7 1.5,14.25 L1.5,12.75 C1.5,11.475 2.475,10.5 3.75,10.5 L9.75,10.5 C11.025,10.5 12,11.475 12,12.75 L12,14.25 C12,14.7 12.3,15 12.75,15 C13.2,15 13.5,14.7 13.5,14.25 L13.5,12.75 C13.5,10.65 11.85,9 9.75,9 Z" id="Shape"></path>
                                                    <path d="M6.75,7.5 C8.85,7.5 10.5,5.85 10.5,3.75 C10.5,1.65 8.85,0 6.75,0 C4.65,0 3,1.65 3,3.75 C3,5.85 4.65,7.5 6.75,7.5 Z M6.75,1.5 C8.025,1.5 9,2.475 9,3.75 C9,5.025 8.025,6 6.75,6 C5.475,6 4.5,5.025 4.5,3.75 C4.5,2.475 5.475,1.5 6.75,1.5 Z" id="Shape"></path>
                                                </g>
                                            </g>
                                        </g>
                                    </g>
                                </g>
                            </g>
                        </g>
                    </g>
                </g>
            </g>
        </g>
    </g>
</svg>