<?xml version="1.0" encoding="UTF-8"?>
<svg width="16px" height="16px" viewBox="0 0 16 16" version="1.1" xmlns="http://www.w3.org/2000/svg" xmlns:xlink="http://www.w3.org/1999/xlink">
    <!-- Generator: Sketch 55.2 (78181) - https://sketchapp.com -->
    <title>worthit</title>
    <desc>Created with Sketch.</desc>
    <g id="1440" stroke="none" stroke-width="1" fill="none" fill-rule="evenodd">
        <g id="0-1440-FORM-EXPERIENCIAS---EMPTY" transform="translate(-187.000000, -2132.000000)">
            <g id="experiencia" transform="translate(0.000000, 1895.000000)">
                <g id="ficha-experiencia" transform="translate(150.000000, 105.000000)">
                    <g id="worthit" transform="translate(44.903830, 140.299775) rotate(37.000000) translate(-44.903830, -140.299775) translate(36.403830, 131.799775)">
                        <path d="M8.39818498,0.20136449 C3.98007798,0.20136449 0.398184977,3.78325749 0.398184977,8.20136449 C0.398184977,12.6194715 3.98007798,16.2013645 8.39818498,16.2013645 C12.816292,16.2013645 16.398185,12.6194715 16.398185,8.20136449 C16.398185,3.78325749 12.816292,0.20136449 8.39818498,0.20136449 Z" id="Shape" fill="#19B5BC" fill-rule="nonzero"></path>
                        <g id="Group-13" transform="translate(3.337935, 1.779308)" fill="#FFFFFF">
                            <path d="M5.88092551,10.1861081 C4.36391239,8.8249882 2.06073933,7.43021445 2.82832119,6.46643464 C3.5961071,5.50239864 3.74622926,3.51783682 3.74622926,3.36305728 C3.74622926,2.81492485 3.59963333,2.27389833 3.31851851,1.80946616 C3.24939925,1.69523114 3.21636985,1.56606344 3.21636985,1.43849199 C3.21636985,1.22047483 3.31310386,1.00657703 3.49188167,0.877100373 C3.73281033,0.702542466 4.05211024,0.734982431 4.25953865,0.954982035 L4.62924195,1.34655301 C5.05198533,1.79512564 5.37808888,2.34124987 5.58285705,2.94530262 L5.78329349,3.53550401 L7.5629157,2.30589048 C7.89259762,2.06719928 8.3385534,2.17159933 8.5491129,2.54087426 C8.75213896,2.8966068 8.64787152,3.36665159 8.3280066,3.59821115 C8.32414571,3.60101747 8.32386321,3.60554876 8.32515802,3.60894724 C8.32699429,3.61268041 8.33085518,3.61517777 8.33516336,3.61316958 C8.41678341,3.57885016 8.68507961,3.47931347 8.7696895,3.47931347 C8.90482048,3.47931347 9.03870374,3.52189736 9.15323548,3.60289429 C9.23219529,3.65871163 9.30211498,3.73286012 9.35727385,3.82400097 C9.4638484,4.00005215 9.495583,4.2065351 9.46071732,4.39844581 C9.4060293,4.70078114 9.20509847,4.85654446 9.16564211,4.88586916 C9.15893264,4.89099261 9.15709637,4.90111079 9.16180477,4.90875736 C9.16665441,4.91606922 9.17564745,4.91800017 9.18207441,4.91357186 C9.23833975,4.89861343 9.29559385,4.89148179 9.3528715,4.89148179 C9.49266379,4.89148179 9.63170274,4.93494104 9.74993058,5.017354 C9.82985561,5.07324858 9.90052864,5.14713961 9.95524021,5.2376883 C10.1698254,5.59200481 9.98660469,6.15507558 9.6622668,6.38985339 C9.65428606,6.39577497 9.64628179,6.40169655 9.63830106,6.40733493 C9.63373391,6.41132556 9.63234494,6.41776206 9.63472268,6.42229336 C9.64089068,6.42821494 9.64656429,6.42849814 9.65124915,6.42458475 C9.85272144,6.3495094 10.0719679,6.3836486 10.248368,6.50859396 C10.3296114,6.56559561 10.4016499,6.64239594 10.458645,6.73654908 C10.6733243,7.09117454 10.5845946,7.56873717 10.2605863,7.80351498 C8.54065796,9.32251907 7.08077103,10.1167168 5.88092551,10.1861081 Z" id="Fill-4"></path>
                            <path d="M2.35313166,11.1415125 L0.933351276,9.25740026 C0.600978017,8.81632604 0.68909755,8.18932298 1.13017176,7.85694972 C1.19546965,7.80774424 1.26655568,7.76673267 1.34183802,7.7348334 L2.06073933,7.43021445 C2.8267622,8.79290434 4.29994958,9.49746498 5.32795179,10.6028037 C5.06291454,11.499212 4.1213769,12.0110394 3.22496861,11.7460021 C2.8770845,11.6431447 2.57145286,11.4312345 2.35313166,11.1415125 Z" id="Fill-6" opacity="0.75"></path>
                        </g>
                    </g>
                </g>
            </g>
        </g>
    </g>
</svg>